# xmcd
#
# Track frame offsets:
#	150
#	15009
#	29776
#	45773
#	61921
#	79078
#	92343
#
# Disc length: 1457 seconds
#
# Revision: 1
# Processed by: cddbd v1.5.2PL0 Copyright (c) Steve Scherf et al.
# Submitted via: audiograbber 1.83.01
#
DISCID=3e05af07
DTITLE=Various Artist - CDX 667
DYEAR=2018
DGENRE=Country
TTITLE0=Seth Ennis ft. Little Big Town - Call Your Mama
TTITLE1=Morgan Evans - Day Drunk
TTITLE2=Keith Urban - Never Comin' Down
TTITLE3=Cody Johnson - On My Way To You
TTITLE4=Tenille Townes - Somebody's Daughter
TTITLE5=Amy Jack - Gotta Life To Catch
TTITLE6=Ricky Cook - It's All In The Kiss (Radio Edit)
EXTD=
EXTT0=
EXTT1=
EXTT2=
EXTT3=
EXTT4=
EXTT5=
EXTT6=
PLAYORDER=
